<?xml version="1.0" encoding="UTF-8"?>
<svg id="Capa_2" data-name="Capa 2" xmlns="http://www.w3.org/2000/svg" viewBox="0 0 786.67 346.42">
  <defs>
    <style>
      .cls-1 {
        fill: #364798;
      }

      .cls-2 {
        fill: #a17fb8;
      }
    </style>
  </defs>
  <g id="Capa_1-2" data-name="Capa 1">
    <g>
      <polygon class="cls-1" points="166.41 194.56 151.97 194.56 86.88 29.18 20.68 194.56 7.79 194.56 86.58 0 87.62 0 166.41 194.56"/>
      <path class="cls-1" d="M221.27,131.53c0,10.86,2.23,20.22,6.69,28.09,4.46,7.88,10.54,13.96,18.25,18.25,7.7,4.29,16.45,6.43,26.25,6.43s18.86-2.14,26.65-6.43c7.79-4.29,13.92-10.37,18.38-18.25,4.46-7.88,6.69-17.24,6.69-28.09V8.13h12.6v124.19c0,13.48-2.85,25.03-8.53,34.66-5.69,9.63-13.39,16.98-23.11,22.05-9.71,5.08-20.61,7.61-32.69,7.61s-22.97-2.54-32.69-7.61c-9.71-5.07-17.37-12.43-22.97-22.05-5.6-9.62-8.4-21.18-8.4-34.66V8.13h12.87v123.4Z"/>
      <path class="cls-1" d="M749.98,185.87c-25.12,40.7-71.23,65.98-120.34,65.98s-91.08-22.78-116.88-60.64l-48.69-79.41c.19-.08.39-.14.58-.22,7.52-3.15,13.65-7.35,18.38-12.6,4.73-5.25,8.14-11.16,10.24-17.72,2.1-6.56,3.15-13.34,3.15-20.35,0-9.27-1.75-17.24-5.25-23.89-3.5-6.65-8.1-12.12-13.78-16.41-5.69-4.29-11.99-7.44-18.9-9.45-6.92-2.01-13.88-3.02-20.87-3.02h-42.54v186.41h12.87v-78.24h28.88c5.05,0,9.71-.35,14.02-1.01l51.05,82.9c28.39,41.69,76.15,66.58,127.75,66.58s103.89-27.63,131.34-72.12l-11-6.79ZM436.03,103.96h-28.09V20.47h31.51c6.65,0,12.69,1.09,18.12,3.28,5.42,2.19,10.06,5.16,13.92,8.93,3.85,3.77,6.78,8.1,8.79,13,2.01,4.9,3.02,10.15,3.02,15.75,0,4.73-.75,9.58-2.23,14.57-1.49,4.99-3.98,9.58-7.48,13.78-3.5,4.2-8.32,7.61-14.44,10.24-6.13,2.63-13.83,3.94-23.1,3.94Z"/>
      <polygon class="cls-1" points="703.58 194.56 689.14 194.56 624.06 29.18 557.85 194.56 545.01 194.56 623.75 0 624.79 0 703.58 194.56"/>
      <g>
        <path class="cls-2" d="M17.65,305.84c-.15-.38-.52-.62-.93-.62h-.21c-.41,0-.77.25-.93.62L.07,344.16c-.12.31-.09.66.1.93.19.28.5.44.83.44h2.54c.41,0,.78-.25.93-.63l4.61-11.53h14.85l4.54,11.52c.15.38.52.63.93.63h2.84c.33,0,.64-.17.83-.44.19-.28.22-.63.1-.93l-15.52-38.33ZM23.67,330.01l-7.1-18.04h0s7.1,18.04,7.1,18.04h0ZM9.35,330.01l.09-.23-.09.23h0ZM16.57,314.68l5.64,14.33h-11.38l5.73-14.33Z"/>
        <path class="cls-2" d="M69.13,326.54c-1.02-.84-2.18-1.57-3.45-2.15-1.21-.56-2.44-1.08-3.67-1.53-1.47-.57-2.89-1.17-4.21-1.8-1.22-.58-2.21-1.28-2.95-2.1-.66-.73-.98-1.64-.98-2.77,0-1.53.59-2.77,1.81-3.78,1.26-1.05,2.99-1.58,5.15-1.58,1.45,0,2.93.21,4.38.63,1.49.43,2.76.9,3.77,1.39.14.07.29.1.44.1.37,0,.72-.2.9-.55l.98-1.97c.24-.49.05-1.08-.43-1.33-1.38-.72-3.01-1.33-4.85-1.79-1.85-.47-3.69-.7-5.5-.7,0,0-.01,0-.02,0-2.1.04-4.01.46-5.67,1.26-1.69.81-3.04,1.96-4.04,3.41-1.01,1.47-1.52,3.21-1.52,5.17,0,1.58.33,2.97.99,4.12.63,1.12,1.5,2.08,2.58,2.87,1.02.75,2.17,1.4,3.4,1.92,1.16.5,2.36.98,3.55,1.44,1.49.54,2.89,1.15,4.19,1.82,1.21.62,2.22,1.43,2.98,2.39.71.9,1.08,2.13,1.08,3.65,0,1.61-.38,2.89-1.17,3.92-.8,1.05-1.83,1.84-3.06,2.35-1.27.53-2.59.8-3.93.8-1.17,0-2.37-.18-3.54-.53-1.21-.36-2.35-.81-3.37-1.33-1.03-.52-1.92-1.05-2.63-1.57-.17-.13-.38-.19-.59-.19-.07,0-.14,0-.21.02-.28.06-.52.23-.66.48l-1.19,2.07c-.27.47-.12,1.06.33,1.35.68.43,1.59.95,2.72,1.56,1.18.63,2.56,1.19,4.12,1.65,1.59.47,3.36.72,5.28.72,2.42,0,4.59-.47,6.45-1.4,1.88-.94,3.38-2.29,4.44-4.01,1.06-1.72,1.6-3.72,1.6-5.93,0-1.87-.32-3.48-.95-4.78-.63-1.3-1.5-2.41-2.57-3.29Z"/>
        <path class="cls-2" d="M114.84,341.11h-19.84v-12.84h17.1c.55,0,1-.45,1-1v-2.43c0-.55-.45-1-1-1h-17.1v-12.59h19.12c.55,0,1-.45,1-1v-2.43c0-.55-.45-1-1-1h-22.65c-.55,0-1,.45-1,1v36.72c0,.55.45,1,1,1h23.38c.55,0,1-.45,1-1v-2.43c0-.55-.45-1-1-1Z"/>
        <path class="cls-2" d="M152.92,326.54c-1.02-.84-2.18-1.57-3.45-2.15-1.21-.56-2.44-1.08-3.67-1.53-1.47-.57-2.89-1.17-4.21-1.8-1.22-.58-2.21-1.28-2.95-2.1-.66-.73-.98-1.64-.98-2.77,0-1.53.59-2.77,1.81-3.78,1.26-1.05,2.99-1.58,5.15-1.58,1.45,0,2.93.21,4.38.63,1.49.43,2.76.9,3.77,1.39.14.07.29.1.44.1.37,0,.72-.2.9-.55l.98-1.97c.24-.49.05-1.08-.43-1.33-1.38-.72-3.01-1.33-4.85-1.79-1.85-.47-3.69-.7-5.5-.7,0,0-.01,0-.02,0-2.1.04-4.01.46-5.67,1.26-1.69.81-3.04,1.96-4.04,3.41-1.01,1.47-1.52,3.21-1.52,5.17,0,1.58.33,2.97.99,4.12.63,1.12,1.5,2.08,2.58,2.87,1.02.75,2.17,1.4,3.4,1.92,1.16.5,2.36.98,3.55,1.44,1.49.54,2.89,1.15,4.19,1.82,1.21.62,2.22,1.43,2.98,2.39.71.9,1.08,2.13,1.08,3.65,0,1.61-.38,2.89-1.17,3.92-.8,1.05-1.83,1.84-3.06,2.35-1.27.53-2.59.8-3.93.8-1.17,0-2.37-.18-3.54-.53-1.21-.36-2.35-.81-3.37-1.33-1.03-.52-1.92-1.05-2.63-1.57-.17-.13-.38-.19-.59-.19-.07,0-.14,0-.21.02-.28.06-.52.23-.66.48l-1.19,2.07c-.27.47-.12,1.06.33,1.35.68.43,1.59.95,2.72,1.56,1.18.63,2.56,1.19,4.12,1.65,1.59.47,3.36.72,5.28.72,2.42,0,4.59-.47,6.45-1.4,1.88-.94,3.38-2.29,4.44-4.01,1.06-1.72,1.6-3.72,1.6-5.93,0-1.87-.32-3.48-.95-4.78-.63-1.3-1.5-2.41-2.57-3.29ZM149.28,310.51c-.39-.11-.78-.21-1.16-.29-.78-.17-1.55-.28-2.33-.34.78.06,1.55.17,2.33.34.39.08.78.18,1.16.29.78.22,1.49.46,2.15.7-.66-.24-1.37-.47-2.15-.7ZM139.07,308.77c.38-.19.78-.35,1.19-.49-.41.14-.81.3-1.19.49s-.75.39-1.09.61c.34-.22.71-.42,1.09-.61ZM134.08,316.45c0-.88.11-1.7.34-2.47-.22.77-.34,1.59-.34,2.47,0,.71.07,1.36.21,1.97-.14-.6-.21-1.26-.21-1.97ZM143.96,325.87c-1.17-.45-2.34-.92-3.52-1.42,1.17.5,2.34.97,3.52,1.42,1.52.55,2.95,1.17,4.29,1.86-1.34-.69-2.78-1.31-4.29-1.86ZM151.56,330.39c-.22-.27-.45-.53-.69-.78.25.25.48.51.69.78.43.54.75,1.17.97,1.88-.22-.71-.54-1.34-.97-1.88ZM146.96,342.24c-1.06.33-2.15.49-3.26.49,1.11,0,2.2-.16,3.26-.49ZM142.62,344.91c.44.03.88.04,1.34.04h0c-.46,0-.9-.01-1.34-.04Z"/>
        <path class="cls-2" d="M205.65,312.26c-1.81-1.82-3.93-3.27-6.31-4.3-2.39-1.03-4.98-1.56-7.69-1.56s-5.29.52-7.67,1.56c-2.37,1.03-4.48,2.47-6.29,4.3-1.81,1.83-3.23,3.95-4.24,6.31-1.01,2.37-1.53,4.95-1.53,7.66s.51,5.45,1.53,7.84c1.01,2.39,2.45,4.5,4.26,6.27,1.81,1.77,3.93,3.17,6.29,4.14,2.37.98,4.95,1.47,7.65,1.47s5.29-.51,7.68-1.53c2.38-1.01,4.51-2.44,6.32-4.25,1.81-1.81,3.24-3.92,4.27-6.28,1.03-2.37,1.56-4.95,1.56-7.67s-.52-5.29-1.56-7.67c-1.03-2.36-2.46-4.48-4.27-6.3ZM207.57,329.53c-.21,1.06-.53,2.08-.95,3.07.42-.98.74-2,.95-3.07.21-1.06.32-2.16.32-3.3s-.11-2.21-.32-3.26c-.21-1.06-.53-2.08-.95-3.07.42.99.74,2.01.95,3.07.21,1.06.32,2.14.32,3.26s-.11,2.24-.32,3.3ZM201.97,338.82c.4-.33.79-.68,1.16-1.05.74-.74,1.4-1.54,1.98-2.41-.58.86-1.24,1.66-1.98,2.41-.37.37-.76.72-1.16,1.05ZM203.13,314.67c.74.75,1.4,1.56,1.98,2.43-.58-.87-1.24-1.68-1.98-2.43-.37-.37-.76-.73-1.16-1.06.4.33.79.69,1.16,1.06ZM185.76,340.34c-1.82-.79-3.45-1.89-4.84-3.28-1.38-1.39-2.48-3.02-3.25-4.85-.77-1.83-1.16-3.83-1.16-5.92s.38-4.06,1.14-5.91c.76-1.86,1.84-3.52,3.21-4.93,1.37-1.42,2.99-2.55,4.84-3.38,1.82-.82,3.83-1.23,5.95-1.23s4.08.41,5.91,1.21c1.84.81,3.48,1.93,4.86,3.33,1.39,1.4,2.49,3.06,3.28,4.91.79,1.85,1.19,3.85,1.19,5.94s-.4,4.14-1.19,5.97c-.79,1.84-1.89,3.47-3.28,4.86-1.39,1.39-3.02,2.49-4.86,3.28-1.83.79-3.84,1.19-5.97,1.19s-4.02-.4-5.83-1.19Z"/>
        <path class="cls-2" d="M245.21,328.68c1.2-.62,2.22-1.39,3.04-2.3,1.02-1.13,1.77-2.43,2.23-3.85.44-1.39.67-2.84.67-4.31,0-1.98-.39-3.72-1.15-5.17-.76-1.44-1.77-2.63-3-3.57-1.22-.92-2.58-1.6-4.05-2.02-1.45-.42-2.93-.64-4.39-.64h-8.38c-.55,0-1,.45-1,1v36.72c0,.55.45,1,1,1h2.53c.55,0,1-.45,1-1v-14.41h4.69c.79,0,1.54-.04,2.25-.12l9.26,15.06c.18.3.5.48.85.48h2.95c.36,0,.7-.2.87-.51.18-.32.17-.7-.02-1.01l-9.35-15.34ZM244.87,323.26c-.59.7-1.42,1.29-2.47,1.74-1.08.46-2.48.69-4.16.69h-4.53v-14.45h5.21c1.17,0,2.25.19,3.2.57.94.38,1.75.9,2.42,1.55.65.64,1.16,1.39,1.51,2.22.34.84.52,1.76.52,2.72,0,.83-.13,1.7-.4,2.59-.25.85-.69,1.64-1.28,2.36ZM250.76,344.54l-9.6-15.61c-.26.04-.53.06-.8.09.27-.03.54-.06.8-.1h0s9.6,15.62,9.6,15.62h0ZM238.4,329.13c.52,0,1.02-.02,1.5-.06-.48.04-.98.06-1.5.06ZM243.77,328.24h0s.08-.03.12-.05c-.04.02-.08.03-.11.05l9.94,16.3-9.94-16.3Z"/>
        <path class="cls-2" d="M280.92,295.69h-2.74c-.34,0-.65.17-.84.45l-4.5,6.88c-.2.31-.22.7-.04,1.02.17.32.51.52.88.52h1.76c.3,0,.59-.14.78-.38l5.48-6.88c.24-.3.29-.71.12-1.06-.17-.35-.52-.57-.9-.57Z"/>
        <rect class="cls-2" x="272.26" y="306.82" width="4.53" height="38.72" rx="1" ry="1"/>
        <path class="cls-2" d="M311.27,305.84c-.15-.38-.52-.62-.93-.62h-.21c-.41,0-.77.25-.93.62l-15.52,38.33c-.12.31-.09.66.1.93.19.28.5.44.83.44h2.54c.41,0,.78-.25.93-.63l4.61-11.53h14.85l4.54,11.52c.15.38.52.63.93.63h2.84c.33,0,.64-.17.83-.44.19-.28.22-.63.1-.93l-15.52-38.33ZM304.45,329.01l5.73-14.33,5.64,14.33h-11.38ZM310.19,311.97h0l-7.22,18.04h0l7.22-18.04ZM297.16,344.54l4.86-12.15h0l-4.86,12.15Z"/>
        <path class="cls-2" d="M396.98,339.41c-.13-.25-.36-.43-.63-.5-.08-.02-.17-.03-.25-.03-.19,0-.38.05-.54.16-1.1.71-2.37,1.31-3.78,1.78-1.39.46-2.95.7-4.62.7-2.27,0-4.34-.4-6.17-1.19-1.83-.79-3.41-1.88-4.71-3.26-1.3-1.38-2.31-3.01-3-4.84-.69-1.84-1.05-3.83-1.05-5.91s.39-4.21,1.16-6.08c.78-1.88,1.87-3.54,3.23-4.93,1.37-1.4,2.98-2.51,4.78-3.3,1.79-.79,3.73-1.18,5.76-1.18,1.57,0,3.08.24,4.49.72,1.43.49,2.74,1.1,3.88,1.81.16.1.35.15.53.15.09,0,.19-.01.28-.04.27-.08.5-.28.62-.54l1.09-2.33c.22-.46.05-1.02-.39-1.28-1.43-.86-3.06-1.58-4.82-2.12-1.78-.54-3.7-.82-5.73-.82-2.74,0-5.33.52-7.69,1.53-2.35,1.01-4.44,2.44-6.22,4.25-1.78,1.82-3.17,3.96-4.14,6.38-.98,2.42-1.47,5.07-1.47,7.87,0,2.63.47,5.15,1.39,7.48.93,2.34,2.26,4.43,3.96,6.22,1.71,1.8,3.78,3.23,6.17,4.26,2.39,1.03,5.08,1.56,8,1.56,1.51,0,2.93-.14,4.24-.41,1.31-.27,2.53-.65,3.61-1.12,1.07-.46,2.03-.95,2.86-1.46.45-.28.61-.86.36-1.33l-1.19-2.22ZM391.13,344.56c-.62.13-1.27.23-1.94.29.67-.06,1.32-.16,1.94-.29.62-.13,1.22-.28,1.78-.46-.57.18-1.16.33-1.78.46Z"/>
        <path class="cls-2" d="M447.39,312.26c-1.81-1.82-3.93-3.27-6.31-4.3-2.39-1.03-4.98-1.56-7.69-1.56s-5.29.52-7.67,1.56c-2.37,1.03-4.48,2.47-6.29,4.3-1.81,1.83-3.23,3.95-4.24,6.31-1.01,2.37-1.53,4.95-1.53,7.66s.51,5.45,1.53,7.84c1.01,2.39,2.45,4.5,4.26,6.27,1.81,1.77,3.93,3.17,6.29,4.14,2.37.98,4.95,1.47,7.65,1.47s5.29-.51,7.68-1.53c2.38-1.01,4.51-2.44,6.32-4.25,1.81-1.81,3.24-3.92,4.27-6.28,1.03-2.37,1.56-4.95,1.56-7.67s-.52-5.29-1.56-7.67c-1.03-2.36-2.46-4.48-4.27-6.3ZM421.96,337.77c.74.74,1.54,1.4,2.4,1.98-.86-.58-1.66-1.24-2.4-1.98ZM418.25,326.28c0-2.07.38-4.06,1.14-5.91.76-1.86,1.84-3.52,3.21-4.93,1.37-1.42,2.99-2.55,4.84-3.38,1.82-.82,3.83-1.23,5.95-1.23s4.08.41,5.91,1.21c1.84.81,3.48,1.93,4.86,3.33,1.39,1.4,2.49,3.06,3.28,4.91.79,1.85,1.19,3.85,1.19,5.94s-.4,4.14-1.19,5.97c-.79,1.84-1.89,3.47-3.28,4.86-1.39,1.39-3.02,2.49-4.86,3.28-1.83.79-3.84,1.19-5.97,1.19s-4.02-.4-5.83-1.19c-1.82-.79-3.45-1.89-4.84-3.28-1.38-1.39-2.48-3.02-3.25-4.85-.77-1.83-1.16-3.83-1.16-5.92Z"/>
        <path class="cls-2" d="M502.75,306.82h-2.43c-.27,0-.52.11-.71.29-.19.19-.29.44-.29.71l.05,28.7-26.54-30.14c-.19-.22-.46-.34-.75-.34h-.16c-.55,0-1,.45-1,1v37.5c0,.55.45,1,1,1h2.48c.27,0,.52-.11.71-.29.19-.19.29-.44.29-.71l-.05-28.36,26.54,29.9c.19.21.46.34.75.34h.1c.55,0,1-.45,1-1v-37.6c0-.55-.45-1-1-1ZM500.37,339.17l-.05-31.36.05,31.36h0s-28.29-32.13-28.29-32.13l28.29,32.13ZM474.35,313.54h0l28.29,31.88-28.29-31.88Z"/>
        <path class="cls-2" d="M545.88,306.82h-24.05c-.55,0-1,.45-1,1v2.43c0,.55.45,1,1,1h9.71v33.29c0,.55.45,1,1,1h2.54c.55,0,1-.45,1-1v-33.29h9.81c.55,0,1-.45,1-1v-2.43c0-.55-.45-1-1-1ZM535.08,344.54h0v-34.29h0v34.29Z"/>
        <path class="cls-2" d="M578.41,305.84c-.15-.38-.52-.62-.93-.62h-.21c-.41,0-.77.25-.93.62l-15.52,38.33c-.12.31-.09.66.1.93.19.28.5.44.83.44h2.54c.41,0,.78-.25.93-.63l4.61-11.53h14.85l4.54,11.52c.15.38.52.63.93.63h2.84c.33,0,.64-.17.83-.44.19-.28.22-.63.1-.93l-15.52-38.33ZM571.59,329.01l5.73-14.33,5.64,14.33h-11.38ZM577.33,311.97h0l-7.22,18.04h0l7.22-18.04ZM564.3,344.54l4.86-12.15h0l-4.86,12.15Z"/>
        <path class="cls-2" d="M628.24,325.83c-.08-.04-.17-.09-.25-.13,0,0,0,0,0,0,1.36-.96,2.41-2.21,3.1-3.71.68-1.47,1.02-3.11,1.02-4.87,0-3.59-1.12-6.25-3.32-7.91-2.11-1.59-5.09-2.4-8.85-2.4h-8.12c-.55,0-1,.45-1,1v36.72c0,.55.45,1,1,1h9.57c1.61,0,3.16-.21,4.62-.63,1.49-.43,2.84-1.09,4.02-1.97,1.2-.9,2.17-2.04,2.88-3.39.71-1.36,1.07-2.97,1.07-4.78,0-2.03-.54-3.83-1.6-5.35-1.04-1.49-2.43-2.69-4.14-3.58ZM628.24,331.2c.78.91,1.16,2.11,1.16,3.67,0,1.41-.34,2.55-1.04,3.49-.72.96-1.66,1.65-2.87,2.12-1.26.49-2.67.73-4.19.73h-5.93v-12.79h5.78c1.36,0,2.71.23,4.01.69,1.24.44,2.28,1.14,3.09,2.09ZM615.36,323.99v-12.74h4.69c2.35,0,4.23.51,5.59,1.51,1.28.95,1.9,2.53,1.9,4.83,0,1.88-.49,3.4-1.51,4.64-.95,1.16-2.59,1.75-4.89,1.75h-5.78ZM614.36,324.99h0v-14.74h0v14.74ZM614.36,327.42h0v14.79h0v-14.79ZM625.6,325.85s.01,0,.02,0c0,0-.01,0-.02,0,.2-.08.39-.16.57-.25-.18.09-.36.18-.55.25.22.07.42.15.64.22-.22-.08-.43-.15-.66-.22ZM627.42,324.89c-.29.2-.6.39-.92.56.32-.17.63-.35.92-.56ZM629.03,323.41c.46-.55.85-1.16,1.16-1.84-.31.67-.7,1.28-1.16,1.84ZM619.95,307.82c.89,0,1.73.05,2.51.14-.79-.09-1.63-.14-2.51-.14h0ZM625.74,343.94c-1.03.3-2.11.48-3.22.56-.37.02-.75.04-1.12.04h0c.38,0,.75-.01,1.12-.04,1.11-.07,2.19-.26,3.22-.56,1.38-.4,2.61-1,3.7-1.81-1.09.81-2.32,1.41-3.7,1.81ZM632.44,338.12c.24-.67.4-1.39.48-2.16-.08.77-.24,1.49-.48,2.16ZM631.56,329.98c-.95-1.36-2.21-2.45-3.78-3.26-.37-.19-.75-.36-1.14-.51.39.15.77.32,1.14.51,1.57.81,2.83,1.9,3.78,3.26.47.68.83,1.42,1.07,2.22-.24-.8-.59-1.54-1.07-2.22Z"/>
        <path class="cls-2" d="M675.34,341.11h-19.12v-33.29c0-.55-.45-1-1-1h-2.53c-.55,0-1,.45-1,1v36.72c0,.55.45,1,1,1h22.65c.55,0,1-.45,1-1v-2.43c0-.55-.45-1-1-1Z"/>
        <path class="cls-2" d="M717.6,341.11h-19.84v-12.84h17.1c.55,0,1-.45,1-1v-2.43c0-.55-.45-1-1-1h-17.1v-12.59h19.12c.55,0,1-.45,1-1v-2.43c0-.55-.45-1-1-1h-22.65c-.55,0-1,.45-1,1v36.72c0,.55.45,1,1,1h23.38c.55,0,1-.45,1-1v-2.43c0-.55-.45-1-1-1ZM716.87,307.82v2.43h0v-2.43h0Z"/>
      </g>
      <polygon class="cls-1" points="768.23 175.68 763.25 162.22 749.78 157.24 763.25 152.26 768.23 138.8 773.21 152.26 786.67 157.24 773.21 162.22 768.23 175.68"/>
      <polygon class="cls-1" points="62.45 120.42 112.2 120.42 114.41 132.47 60.55 132.47 62.45 120.42"/>
      <polygon class="cls-1" points="599.28 120.42 649.03 120.42 651.24 132.47 597.38 132.47 599.28 120.42"/>
    </g>
  </g>
</svg>