<?xml version="1.0" encoding="UTF-8"?>
<svg id="Capa_2" data-name="Capa 2" xmlns="http://www.w3.org/2000/svg" viewBox="0 0 228.72 208.55">
  <defs>
    <style>
      .cls-1 {
        fill: #364798;
      }
    </style>
  </defs>
  <g id="Capa_1-2" data-name="Capa 1">
    <g>
      <path class="cls-1" d="M99.94,208.55c-38.68,0-74.47-18.66-95.76-49.91l-4.18-6.87,8.29-5.03,4.04,6.66c19.34,28.38,52.14,45.46,87.61,45.46s71.37-18.95,90.21-49.46l8.25,5.09c-20.58,33.34-58.31,54.06-98.45,54.06Z"/>
      <polygon class="cls-1" points="155.36 145.84 144.54 145.84 95.75 21.87 46.13 145.84 36.5 145.84 95.52 0 96.3 0 155.36 145.84"/>
      <polygon class="cls-1" points="214.9 127.94 211.17 117.85 201.08 114.12 211.17 110.39 214.9 100.3 218.63 110.39 228.72 114.12 218.63 117.85 214.9 127.94"/>
      <polygon class="cls-1" points="77.76 87.87 113.99 87.87 115.6 96.65 76.38 96.65 77.76 87.87"/>
    </g>
  </g>
</svg>